<svg width="30" height="18" viewBox="0 0 30 18" fill="none" xmlns="http://www.w3.org/2000/svg">
<path d="M14.9411 17.9269C14.5482 17.9291 14.1586 17.8538 13.7948 17.7052C13.4311 17.5567 13.1002 17.3377 12.8212 17.061L0.878092 5.11789C0.599703 4.8395 0.378873 4.50901 0.22821 4.14528C0.0775463 3.78154 5.86662e-09 3.39169 0 2.99799C-5.86662e-09 2.60429 0.0775463 2.21444 0.22821 1.85071C0.378873 1.48698 0.599703 1.15648 0.878092 0.878091C1.15648 0.599701 1.48698 0.37887 1.85071 0.228207C2.21444 0.0775434 2.60429 -5.86661e-09 2.99799 0C3.3917 5.86662e-09 3.78154 0.0775434 4.14528 0.228207C4.50901 0.37887 4.83951 0.599701 5.1179 0.878091L14.9411 10.761L24.7942 1.26624C25.0688 0.960827 25.4036 0.715371 25.7774 0.545223C26.1513 0.375075 26.5562 0.283898 26.9669 0.277391C27.3776 0.270884 27.7853 0.349186 28.1643 0.507406C28.5434 0.665625 28.8857 0.900357 29.1699 1.19692C29.4541 1.49348 29.6741 1.84549 29.816 2.23094C29.958 2.61638 30.0189 3.02697 29.9949 3.43703C29.9709 3.84708 29.8626 4.24778 29.6767 4.61406C29.4908 4.98035 29.2314 5.30433 28.9145 5.56576L16.9714 17.0909C16.4254 17.6173 15.6995 17.9162 14.9411 17.9269Z" fill="#231F20"/>
</svg>
