<svg width="7" height="12" viewBox="0 0 7 12" fill="none" xmlns="http://www.w3.org/2000/svg">
<path d="M1.07006 12C1.36306 12 1.59873 11.8957 1.80255 11.687L6.59873 6.9C6.87261 6.61957 6.99363 6.34565 7 6C7 5.66087 6.87261 5.37391 6.59873 5.1L1.80892 0.306522C1.59873 0.104348 1.35669 0 1.07006 0C0.484076 0 0 0.482609 0 1.08261C0 1.38261 0.127389 1.65652 0.343949 1.88478L4.50318 6.00652L0.343949 10.1152C0.121019 10.3435 0 10.6174 0 10.9174C0 11.5109 0.484076 12 1.07006 12Z" fill="#000000"/>
</svg>
