<svg width="51" height="50" viewBox="0 0 51 50" fill="none" xmlns="http://www.w3.org/2000/svg">
<path fill-rule="evenodd" clip-rule="evenodd" d="M23.8919 45.6534C24.1226 45.7739 24.3806 45.8352 24.6385 45.8332C24.8965 45.8312 25.1524 45.7678 25.3852 45.6452L32.8183 41.6718C34.9261 40.5481 36.5768 39.2917 37.8645 37.829C40.6645 34.642 42.1935 30.5746 42.1663 26.3805L42.0782 12.5458C42.0698 10.9523 41.0232 9.5304 39.4753 9.01354L25.6474 4.37405C24.8147 4.09213 23.9024 4.09826 23.0844 4.38835L9.30884 9.19331C7.76937 9.7306 6.74166 11.1627 6.75005 12.7582L6.83814 26.5827C6.86541 30.783 8.44682 34.832 11.293 37.9863C12.5933 39.4286 14.2586 40.6666 16.3896 41.7719L23.8919 45.6534ZM21.9243 29.3932C22.2347 29.6915 22.6374 29.8386 23.0401 29.8345C23.4428 29.8325 23.8434 29.6813 24.1496 29.3789L32.2727 21.3707C32.8831 20.768 32.8768 19.7996 32.2601 19.2052C31.6414 18.6107 30.6452 18.6147 30.0348 19.2174L23.017 26.1348L20.1436 23.3727C19.5249 22.7782 18.5307 22.7844 17.9183 23.387C17.308 23.9897 17.3143 24.958 17.933 25.5525L21.9243 29.3932Z" fill="#FDC886"/>
</svg>
