<svg width="25" height="24" viewBox="0 0 25 24" fill="none" xmlns="http://www.w3.org/2000/svg">
<mask id="mask0_3_338" style="mask-type:luminance" maskUnits="userSpaceOnUse" x="2" y="2" width="21" height="20">
<path fill-rule="evenodd" clip-rule="evenodd" d="M2.22516 2H22.2251V22H2.22516V2Z" fill="white"/>
</mask>
<g mask="url(#mask0_3_338)">
<path fill-rule="evenodd" clip-rule="evenodd" d="M7.88916 3.5C5.36016 3.5 3.72516 5.233 3.72516 7.916V16.084C3.72516 18.767 5.36016 20.5 7.88916 20.5H16.5572C19.0892 20.5 20.7252 18.767 20.7252 16.084V7.916C20.7252 5.233 19.0892 3.5 16.5592 3.5H7.88916ZM16.5572 22H7.88916C4.50116 22 2.22516 19.622 2.22516 16.084V7.916C2.22516 4.378 4.50116 2 7.88916 2H16.5592C19.9482 2 22.2252 4.378 22.2252 7.916V16.084C22.2252 19.622 19.9482 22 16.5572 22Z" fill="#656565"/>
</g>
<path fill-rule="evenodd" clip-rule="evenodd" d="M12.2192 16.75C11.8052 16.75 11.4692 16.414 11.4692 16V12C11.4692 11.586 11.8052 11.25 12.2192 11.25C12.6332 11.25 12.9692 11.586 12.9692 12V16C12.9692 16.414 12.6332 16.75 12.2192 16.75Z" fill="#656565"/>
<path fill-rule="evenodd" clip-rule="evenodd" d="M12.2241 9.2041C11.6711 9.2041 11.2191 8.7571 11.2191 8.2041C11.2191 7.6511 11.6621 7.2041 12.2141 7.2041H12.2241C12.7771 7.2041 13.2241 7.6511 13.2241 8.2041C13.2241 8.7571 12.7771 9.2041 12.2241 9.2041Z" fill="#656565"/>
</svg>
