<svg width="25" height="24" viewBox="0 0 25 24" fill="none" xmlns="http://www.w3.org/2000/svg">
<path fill-rule="evenodd" clip-rule="evenodd" d="M3.72516 10.3178C3.72516 5.71789 7.56904 2 12.2186 2C16.8813 2 20.7252 5.71789 20.7252 10.3178C20.7252 12.6357 19.8822 14.7876 18.4947 16.6116C16.964 18.6235 15.0773 20.3765 12.9537 21.7524C12.4677 22.0704 12.029 22.0944 11.4956 21.7524C9.35989 20.3765 7.47325 18.6235 5.95566 16.6116C4.56714 14.7876 3.72516 12.6357 3.72516 10.3178ZM9.41939 10.5768C9.41939 12.1177 10.6768 13.3297 12.2186 13.3297C13.7614 13.3297 15.0309 12.1177 15.0309 10.5768C15.0309 9.0478 13.7614 7.77683 12.2186 7.77683C10.6768 7.77683 9.41939 9.0478 9.41939 10.5768Z" fill="#656565"/>
</svg>
