<svg width="30" height="30" viewBox="0 0 30 30" fill="none" xmlns="http://www.w3.org/2000/svg">
<path d="M25.0625 13.75H4.93752C4.28168 13.75 3.75002 14.2817 3.75002 14.9375V15.0625C3.75002 15.7183 4.28168 16.25 4.93752 16.25H25.0625C25.7184 16.25 26.25 15.7183 26.25 15.0625V14.9375C26.25 14.2817 25.7184 13.75 25.0625 13.75Z" fill="#231F20"/>
<path d="M25.0625 20H4.93752C4.28168 20 3.75002 20.5317 3.75002 21.1875V21.3125C3.75002 21.9683 4.28168 22.5 4.93752 22.5H25.0625C25.7184 22.5 26.25 21.9683 26.25 21.3125V21.1875C26.25 20.5317 25.7184 20 25.0625 20Z" fill="#231F20"/>
<path d="M25.0625 7.5H4.9375C4.28166 7.5 3.75 8.03166 3.75 8.6875V8.8125C3.75 9.46834 4.28166 10 4.9375 10H25.0625C25.7183 10 26.25 9.46834 26.25 8.8125V8.6875C26.25 8.03166 25.7183 7.5 25.0625 7.5Z" fill="#231F20"/>
</svg>
